<svg width="14" height="14" viewBox="0 0 14 14" fill="none" xmlns="http://www.w3.org/2000/svg">
<path fill-rule="evenodd" clip-rule="evenodd" d="M13.8605 12.4732L12.9106 11.6499C12.725 11.4891 12.4243 11.4891 12.2387 11.6499C12.0532 11.8106 12.0532 12.0714 12.2387 12.2322L12.3779 12.3528H3.2691L3.40832 12.2322C3.59389 12.0715 3.59389 11.8107 3.40832 11.6499C3.22275 11.4891 2.92207 11.4891 2.73647 11.6499L1.78656 12.4732C1.69336 12.5538 1.64703 12.6638 1.64703 12.7646C1.64703 12.8675 1.69581 12.9775 1.78656 13.056L2.73647 13.8793C2.92207 14.0401 3.22269 14.0401 3.40832 13.8793C3.59389 13.7185 3.59389 13.4577 3.40832 13.297L3.2691 13.1763H12.3779L12.2387 13.297C12.0532 13.4577 12.0532 13.7185 12.2387 13.8793C12.4243 14.0401 12.7249 14.0401 12.9106 13.8793L13.8605 13.056C13.9535 12.9755 14 12.8656 14 12.7646C14 12.6589 13.9513 12.5517 13.8605 12.4732Z" fill="black"/>
<path fill-rule="evenodd" clip-rule="evenodd" d="M1.7677 9.79672L1.64705 9.93368V1.59571L1.7677 1.73269C1.92854 1.91526 2.18908 1.91526 2.34995 1.73269C2.5108 1.5501 2.5108 1.25435 2.34995 1.07174L1.52642 0.136922C1.3656 -0.0456405 1.10501 -0.0456405 0.944166 0.136922L0.120661 1.07174C-0.0401875 1.25433 -0.0401875 1.55008 0.120661 1.73269C0.281485 1.91526 0.542069 1.91526 0.702918 1.73269L0.823542 1.59571V9.93368L0.702893 9.7967C0.542069 9.61416 0.281485 9.61416 0.120637 9.7967C-0.0402122 9.97929 -0.0402122 10.275 0.120637 10.4577L0.944141 11.3925C1.10499 11.5751 1.36552 11.5751 1.5264 11.3925L2.3499 10.4577C2.51075 10.2751 2.51075 9.97931 2.34993 9.79672C2.1891 9.61416 1.92852 9.61416 1.7677 9.79672Z" fill="black"/>
<mask id="mask0_0_950" style="mask-type:luminance" maskUnits="userSpaceOnUse" x="4" y="0" width="10" height="11">
<path fill-rule="evenodd" clip-rule="evenodd" d="M4.13281 0H13.9965V10.6899H4.13281V0Z" fill="white"/>
</mask>
<g mask="url(#mask0_0_950)">
<path fill-rule="evenodd" clip-rule="evenodd" d="M11.7548 3.77291H13.9965V0.471624C13.9965 0.211095 13.7957 0 13.5482 0H7.42074V3.77291H9.66247C9.90999 3.77291 10.1108 3.984 10.1108 4.24453C10.1108 4.50506 9.90999 4.71615 9.66247 4.71615H7.42074V6.131C7.42074 6.39152 7.21989 6.60262 6.97238 6.60262C6.72486 6.60262 6.52402 6.39152 6.52402 6.131V0H4.58117C4.33366 0 4.13281 0.211095 4.13281 0.471624V10.2183C4.13281 10.4788 4.33366 10.6899 4.58117 10.6899H6.52402V8.33186C6.52402 8.07133 6.72486 7.86024 6.97238 7.86024C7.21989 7.86024 7.42074 8.07133 7.42074 8.33186V10.6899H13.5482C13.7957 10.6899 13.9965 10.4788 13.9965 10.2183V4.71615H11.7548C11.5073 4.71615 11.3064 4.50506 11.3064 4.24453C11.3064 3.984 11.5072 3.77291 11.7548 3.77291Z" fill="black"/>
</g>
</svg>
