<svg width="63" height="71" viewBox="0 0 63 71" fill="none" xmlns="http://www.w3.org/2000/svg">
<path fill-rule="evenodd" clip-rule="evenodd" d="M41.0002 32.6353L32.2263 27.6912C31.5819 27.3279 30.7875 27.3279 30.1428 27.6912L21.3692 32.6353C21.0467 32.817 20.8483 33.1528 20.8483 33.5159V43.5388C20.8483 44.1002 21.3146 44.5554 21.8899 44.5554H26.4361C27.0113 44.5554 27.4777 44.1002 27.4777 43.5388V37.2668C27.4777 36.7051 27.944 36.2499 28.5195 36.2499H33.8498C34.4253 36.2499 34.8917 36.7051 34.8917 37.2668V43.5388C34.8917 44.1002 35.358 44.5554 35.9333 44.5554H40.4795C41.0547 44.5554 41.5211 44.1002 41.5211 43.5388V33.5159C41.5211 33.1528 41.3226 32.817 41.0002 32.6353Z" fill="#2A42E8"/>
<mask id="mask0_0_1190" style="mask-type:luminance" maskUnits="userSpaceOnUse" x="0" y="0" width="63" height="71">
<path fill-rule="evenodd" clip-rule="evenodd" d="M0.175464 0.201233H62.1112V70.2604H0.175464V0.201233Z" fill="white"/>
</mask>
<g mask="url(#mask0_0_1190)">
<path fill-rule="evenodd" clip-rule="evenodd" d="M50.1156 32.7819V39.2547V43.4772C50.1156 44.2127 49.7245 44.8924 49.0897 45.2603L41.3762 49.7296L32.1468 55.0774C31.5117 55.445 30.7297 55.445 30.095 55.0774L20.8652 49.7296V49.7036L13.197 45.2603C12.5622 44.8924 12.1711 44.2127 12.1711 43.4772V39.2547V32.7819V28.5596C12.1711 27.8241 12.5622 27.1442 13.197 26.7765L21.4008 22.0232C22.0356 21.6553 22.8176 21.6553 23.4524 22.0232L30.1176 25.8847C30.7521 26.2526 31.5343 26.2526 32.1691 25.8847L38.834 22.0232C39.4691 21.6553 40.2511 21.6553 40.8859 22.0232L49.0897 26.7765C49.7245 27.1442 50.1156 27.8241 50.1156 28.5596V32.7819ZM59.355 15.6909L33.8996 0.942287C32.1939 -0.045785 30.0925 -0.045785 28.3868 0.942287L2.9317 15.6909C1.22606 16.6792 0.175325 18.5057 0.175325 20.4822V49.9794C0.175325 51.9558 1.22606 53.7823 2.9317 54.7706L28.3868 69.5192C30.0925 70.5076 32.1939 70.5076 33.8996 69.5192L59.355 54.7706C61.0603 53.7823 62.1114 51.9558 62.1114 49.9794V20.4822C62.1114 18.5057 61.0603 16.6792 59.355 15.6909Z" fill="#2A42E8"/>
</g>
</svg>
