<svg width="36" height="41" viewBox="0 0 36 41" fill="none" xmlns="http://www.w3.org/2000/svg">
<path fill-rule="evenodd" clip-rule="evenodd" d="M28.9888 19.1296V22.9068V25.3708C28.9888 25.8001 28.7618 26.1967 28.3933 26.4113L23.9159 29.0194L18.5584 32.14C18.1898 32.3546 17.7359 32.3546 17.3674 32.14L12.0098 29.0194V29.0042L7.5586 26.4113C7.19012 26.1967 6.96308 25.8001 6.96308 25.3708V22.9068V19.1296V16.6658C6.96308 16.2366 7.19012 15.8398 7.5586 15.6253L12.3207 12.8515C12.6892 12.6368 13.1431 12.6368 13.5116 12.8515L17.3805 15.1049C17.7488 15.3196 18.2029 15.3196 18.5714 15.1049L22.4402 12.8515C22.8088 12.6368 23.2628 12.6368 23.6312 12.8515L28.3933 15.6253C28.7618 15.8398 28.9888 16.2366 28.9888 16.6658V19.1296ZM34.352 9.15632L19.5759 0.549869C18.5858 -0.026714 17.366 -0.026714 16.3759 0.549869L1.59988 9.15632C0.609798 9.73306 -0.00012207 10.7989 -0.00012207 11.9522V29.1651C-0.00012207 30.3185 0.609798 31.3843 1.59988 31.961L16.3759 40.5675C17.366 41.1442 18.5858 41.1442 19.5759 40.5675L34.352 31.961C35.342 31.3843 35.952 30.3185 35.952 29.1651V11.9522C35.952 10.7989 35.342 9.73306 34.352 9.15632Z" fill="#2A42E8"/>
</svg>
