<svg width="14" height="15" viewBox="0 0 14 15" fill="none" xmlns="http://www.w3.org/2000/svg">
<mask id="mask0_0_804" style="mask-type:luminance" maskUnits="userSpaceOnUse" x="0" y="0" width="14" height="6">
<path fill-rule="evenodd" clip-rule="evenodd" d="M0 0.318359H13.9675V5.80842H0V0.318359Z" fill="white"/>
</mask>
<g mask="url(#mask0_0_804)">
<path fill-rule="evenodd" clip-rule="evenodd" d="M13.6089 4.36162L7.77345 0.549488C7.29268 0.238306 6.67349 0.241488 6.19527 0.55617L0.353766 4.36481C-0.00864357 4.60376 -0.109189 5.09153 0.129447 5.45426C0.368402 5.81699 0.855856 5.91753 1.21922 5.67826L6.98977 1.91544L12.7536 5.68144C12.8863 5.76703 13.0339 5.80744 13.1803 5.80744C13.439 5.80744 13.691 5.68112 13.8412 5.44885C14.0776 5.08422 13.9732 4.59803 13.6089 4.36162Z" fill="black"/>
</g>
<path fill-rule="evenodd" clip-rule="evenodd" d="M10.5011 12.1268C9.96429 12.1268 9.52902 11.6918 9.52902 11.1541C9.52902 10.617 9.96429 10.1817 10.5011 10.1817C11.0382 10.1817 11.4737 10.6167 11.4737 11.1541C11.4737 11.6918 11.0382 12.1268 10.5011 12.1268ZM3.70915 8.62614L3.82147 7.45587C3.90325 6.60505 4.60929 5.96423 5.46425 5.96423H5.63956V6.33205C5.63956 6.65118 5.89315 6.90541 6.21197 6.90541H7.75706C8.07588 6.90541 8.33393 6.65118 8.33393 6.33205V5.96455H8.50479C9.35975 5.96455 10.0658 6.60505 10.1472 7.45618L10.2599 8.62646L3.70915 8.62614ZM3.4667 12.1268C2.92993 12.1268 2.49465 11.6918 2.49465 11.1541C2.49465 10.617 2.92993 10.1817 3.4667 10.1817C4.00379 10.1817 4.43938 10.6167 4.43938 11.1541C4.43938 11.6918 4.00379 12.1268 3.4667 12.1268ZM12.133 9.105C12.085 8.82977 11.8457 8.62614 11.5667 8.62614H11.2459L11.1241 7.35755C10.9939 6.00082 9.86788 4.97437 8.50479 4.97437H5.46425C4.10084 4.97437 2.97511 6.00114 2.84465 7.35755L2.72311 8.62614H2.40206C2.1227 8.62614 1.88375 8.82977 1.83506 9.105L1.35779 11.8108C1.29861 12.1462 1.39343 12.4914 1.61234 12.7517C1.82297 13.0024 2.1332 13.152 2.45775 13.1631V13.6124C2.45775 14.2484 2.96747 14.7607 3.60415 14.7607H3.96625C4.60229 14.7607 5.11965 14.2484 5.11965 13.6124V13.1701H8.85256V13.6114C8.85256 14.2478 9.36579 14.7607 10.0018 14.7607H10.3642C11.0003 14.7607 11.5142 14.2478 11.5142 13.6114V13.1631C11.8387 13.152 12.147 13.0037 12.357 12.7533C12.5759 12.492 12.6695 12.1487 12.6109 11.813L12.133 9.105Z" fill="black"/>
</svg>
